<?xml version="1.0" encoding="utf-8"?>
<!-- Generator: Adobe Illustrator 16.0.4, SVG Export Plug-In . SVG Version: 6.00 Build 0)  -->
<!DOCTYPE svg PUBLIC "-//W3C//DTD SVG 1.1//EN" "http://www.w3.org/Graphics/SVG/1.1/DTD/svg11.dtd">
<svg version="1.1" id="Layer_1" xmlns="http://www.w3.org/2000/svg" xmlns:xlink="http://www.w3.org/1999/xlink" x="0px" y="0px"
	 width="125.659px" height="162.618px" viewBox="0 0 125.659 162.618" enable-background="new 0 0 125.659 162.618"
	 xml:space="preserve">
<polygon fill="none" stroke="#EE2B62" stroke-miterlimit="10" points="62.391,85.492 44.178,73.322 23.828,81.426 29.774,60.344 
	15.778,43.495 37.666,42.635 49.366,24.117 56.947,44.667 78.174,50.073 60.972,63.633 "/>
<polygon fill="none" stroke="#EE2B62" stroke-miterlimit="10" points="64.588,95.382 45.058,82.235 23.155,90.871 29.623,68.233 
	14.642,50.071 38.17,49.228 50.813,29.367 58.887,51.483 81.682,57.37 63.144,71.883 "/>
<polygon fill="none" stroke="#EE2B62" stroke-miterlimit="10" points="29.41,50.985 60.896,59.829 86.032,38.905 87.351,71.583 
	115.018,89.023 84.346,100.375 76.31,132.078 56.035,106.416 23.401,108.569 41.542,81.356 "/>
</svg>
